<?xml version="1.0" encoding="UTF-8"?>
<svg id="Capa_1" xmlns="http://www.w3.org/2000/svg" version="1.1" viewBox="0 0 383.22 217.03">
  <!-- Generator: Adobe Illustrator 30.6.0, SVG Export Plug-In . SVG Version: 2.1.4 Build 109)  -->
  <path d="M383.22,24.71v139.23c-3.24,13.15-14.22,24.24-28.45,24.28l-30.77.08c2.93-27.35-18.47-50.16-45.02-49.69-26.1.46-46.77,23.23-43.58,49.75h-36.39s-89.19,0-89.19,0c2.93-26.89-17.7-49.38-43.59-49.79-25.86-.41-47.19,21.33-45.25,48.3-11.06-3.44-18.82-12.73-20.98-24.6l.04-69.24L14.4,24.17C17.55,8.88,30.47-.01,45.77,0l308.91.24c14.48.01,25.38,11.65,28.53,24.48ZM62.42,107.63c4.53-.01,7.5-3.86,7.5-8.09v-57.62c0-3.98-3.17-7.47-7.09-7.49l-17.98-.09c-3.64-.02-6.86,2.49-7.53,6.17l-10.68,58.23c-.91,4.96,3.01,8.95,7.8,8.94l27.99-.06ZM121.66,136.72c4.37-.74,7.2-3.79,7.2-8.02l-.03-86.74c0-4.25-3.6-7.5-7.61-7.51l-29.15-.12c-4.04.52-7.51,3.32-7.51,7.69l.03,87.39c0,4.17,3.64,6.77,7.41,7.29l29.65.02ZM179.1,107.68c4.31-.58,7.63-3.81,7.64-8.14v-56.85c.01-4.86-3.96-8.32-8.6-8.32h-26.99c-4.65,0-8.61,3.48-8.61,8.32l.02,56.86c0,4.83,4.12,8.15,8.64,8.15l27.91-.02ZM237.36,107.71c4.25-.78,7.4-3.95,7.4-8.23v-56.73c.01-4.73-3.68-8.33-8.28-8.33h-27.64c-4.55,0-8.3,3.59-8.3,8.28l.03,56.78c0,5.11,4.29,8.27,9.03,8.26l27.77-.04ZM294.47,107.7c4.61,0,8.28-3.72,8.28-8.15v-56.86c.01-4.9-3.97-8.28-8.58-8.29l-27.01-.04c-4.63,0-8.61,3.45-8.61,8.32l.02,56.86c0,4.8,4.11,8.15,8.64,8.15h27.26ZM352.77,107.62c4.46-.01,7.94-3.87,7.94-8.12l.1-56.81c0-4.64-3.7-8.34-8.26-8.34h-27.75c-4.52,0-8.31,3.7-8.31,8.34v56.86c.01,4.69,3.95,8.17,8.47,8.15l27.81-.09Z"/>
  <path d="M273.22,148.8c19.47-3.66,37.08,9.27,40.35,28.03,3.2,18.36-9.17,36.23-27.75,39.62-18.47,3.37-36.49-8.74-40.04-27.5s8.14-36.53,27.44-40.16ZM278.37,168.64c-8.41.8-13.68,8.23-12.65,15.8s7.69,12.87,15.31,12.1,13.44-7.54,12.52-15.63c-.78-6.91-7.03-13.05-15.19-12.27Z"/>
  <path d="M59.13,148.79c19.47-3.67,37.08,9.28,40.35,28.04,3.2,18.38-9.15,36.22-27.75,39.63-18.45,3.39-36.48-8.75-40.03-27.5s8.15-36.54,27.43-40.17ZM63.54,168.72c-8.35,1.19-13.18,8.94-11.8,16.39s8.35,12.52,15.94,11.33c7.44-1.17,12.97-8.26,11.69-16.23-1.11-6.91-7.7-12.65-15.83-11.49Z"/>
</svg>